<svg width="800" height="600" xmlns="http://www.w3.org/2000/svg">

 <g>
  <title>Layer 1</title>
  <text transform="matrix(1.11552 0 0 1.06107 -43.1264 -17.3578)" stroke="#000" font-style="normal" font-weight="normal" xml:space="preserve" text-anchor="start" font-family="'Open Sans SemiBold'" font-size="24" id="svg_1" y="308" x="384.36393" stroke-width="0" fill="#000000">FS</text>
  <path stroke="#000" id="svg_2" d="m415,292.69156l0,0l0,-0.00253l0,0.00253zm0.00122,-0.00253l7.02465,7.31224l-7.02587,7.30971l2.58297,2.68905l9.60884,-10.00003l-9.60884,-10.00003l-2.58175,2.68905zm12.44743,17.12861l17.55129,0l0,-3.79862l-17.55129,0l0,3.79862zm5.27671,-7.91643l12.27458,0l0,-3.79862l-12.27458,0l0,3.79862zm-5.27671,-11.71631l0,3.80115l17.55129,0l0,-3.80115l-17.55129,0z" stroke-width="0" fill="#000000"/>
  <path transform="rotate(-180 370 300)" stroke="#000" id="svg_4" d="m355,292.69156l0,0l0,-0.00254l0,0.00254zm0.00122,-0.00254l7.02466,7.31225l-7.02588,7.30971l2.58297,2.68905l9.60884,-10.00003l-9.60884,-10.00003l-2.58175,2.68905zm12.44743,17.12861l17.55129,0l0,-3.79861l-17.55129,0l0,3.79861zm5.27671,-7.91642l12.27458,0l0,-3.79862l-12.27458,0l0,3.79862zm-5.27671,-11.71631l0,3.80115l17.55129,0l0,-3.80115l-17.55129,0z" stroke-width="0" fill="#000000"/>
 </g>
</svg>